<svg xmlns="http://www.w3.org/2000/svg" xmlns:xlink="http://www.w3.org/1999/xlink" width="165" height="165" viewBox="0 0 165 165">
    <defs>
        <path id="prefix__a" d="M0 0L161 0 161 161 0 161z"/>
    </defs>
    <g fill="none" fill-rule="evenodd" transform="translate(2 2)">
        <mask id="prefix__b" fill="#fff">
            <use xlink:href="#prefix__a"/>
        </mask>
        <path fill="#000" d="M161 124.407c0 20.21-16.249 36.593-36.458 36.593H36.728C16.518 161 0 144.616 0 124.407V36.593C0 16.383 16.518 0 36.728 0h87.814C144.752 0 161 16.383 161 36.593v87.814z" mask="url(#prefix__b)"/>
        <path fill="#12C2FF" d="M91.773 109.112c3.308 5.763 1.345 13.133-4.383 16.461-5.728 3.328-13.054 1.353-16.36-4.41L24.951 55.108c-3.308-5.764-1.345-13.134 4.383-16.462 5.729-3.327 13.055-1.352 16.361 4.411l46.077 66.055z"/>
        <path fill="#FFF" d="M71.642 109.112c-3.308 5.763-1.345 13.133 4.382 16.461 5.73 3.328 13.055 1.353 16.362-4.41l46.078-66.055c3.306-5.764 1.344-13.134-4.384-16.462-5.729-3.327-13.054-1.352-16.361 4.411l-46.077 66.055zM46.69 48.703c0 6.446-5.227 11.672-11.672 11.672-6.447 0-11.673-5.226-11.673-11.672 0-6.446 5.226-11.673 11.672-11.673 6.446 0 11.673 5.227 11.673 11.672"/>
    </g>
</svg>
